<svg version="1" xmlns="http://www.w3.org/2000/svg" width="1365.333" height="1365.333" viewBox="0 0 1024.000000 1024.000000"><path d="M209 171.3c-.3.3-2.6.8-5.1 1.1-8.9 1.2-21 6.2-31.4 13.1-18.3 12.2-30.8 30.7-35.8 53-1.6 7.1-2 24.9-.6 32 3.5 18.8 13.2 36.5 26.1 47.7 18.3 15.8 36.8 22.8 59.3 22.4 18.8-.4 35.9-6.5 51.2-18.2 12.1-9.3 20.3-20 25.8-33.8 4.7-11.6 6.2-19.7 6.3-32.7.1-26.8-11.3-50.6-32-66.5-9.8-7.6-23.4-14-35.8-17-3.3-.8-27.4-1.7-28-1.1zM706.8 375.6c-.3.2-2.2.6-4.3 1-25.6 4-48 23.1-55.1 46.9-1 3.3-2 6.2-2.2 6.5-.1.2-3.9.5-8.3.5l-7.9.1v-43.1l-55.7.1c-30.7.1-56.1.2-56.4.3-.3 0-.5 99.9-.5 221.8l.1 221.8 56.3.3 56.2.2.1-154.7c0-85.2.2-156 .4-157.4.4-3.3 1.3-8.7 1.9-11.5.8-3.7 4.6-10.3 8.3-14.5 7.7-8.6 22.9-13 35.3-10.4 8.6 1.8 18.1 8.9 22.7 17.1 3.7 6.8 3.7 6.1 3.9 170.9l.1 160 56.5.3 56.4.2V679.8c-.1-83.8.2-155.9.6-160.4 2-23.6 15.2-36.5 37.3-36.6 5.9 0 9.5.6 14 2.3 7.9 2.9 15.3 10.3 18 17.9 2 5.4 2 9.3 2.3 167.2L887 832h113v-7.3c.3-57.2-.1-344.9-.5-349.7-2.2-30.4-11.3-53.9-27.7-71.2-11.5-12.2-23.9-19.8-39.3-24.3-12.2-3.5-15.6-3.9-33-3.9-19.3.1-30 2.4-46.5 10.2-6.5 3-12.5 7.5-20.1 15.1-7.9 7.9-11.6 13.4-16 23.6l-2.6 6-7.7.1c-7.5.1-7.8 0-8.8-2.5-2.5-6.4-9.1-18.9-11.6-22-10.9-13.7-27.1-24.6-41.7-28-2.7-.6-6.1-1.4-7.5-1.8-2.8-.6-29.7-1.3-30.2-.7zM25.9 387.8c-1.2.2-1.4 8.1-1.3 53.5l.1 53.2 69.3.3c39.9.1 69.6.6 69.9 1.1.4.5.6 52.1.6 114.8v113.8H14V832l196.2-.2 196.3-.3v-52.3c0-28.7-.2-52.8-.5-53.5-.4-1-14.6-1.2-64.5-1.2h-64l-.1-167.5c-.1-92.1-.2-168-.3-168.5-.1-.9-246.7-1.6-251.2-.7z"/></svg>